<svg xmlns="http://www.w3.org/2000/svg" xmlns:xlink="http://www.w3.org/1999/xlink" width="1366" zoomAndPan="magnify" viewBox="0 0 1024.5 576" height="768" preserveAspectRatio="xMidYMid meet" version="1.0"><path stroke-linecap="butt" transform="matrix(0.75, 0, 0, 0.75, 386.249945, -0.959369)" fill="none" stroke-linejoin="miter" d="M 302.343859 549.206307 C 310.93761 571.258393 323.218862 582.628186 339.192822 583.320894 L 339.192822 593.997979 C 324.953237 592.956312 305.942818 592.435478 282.161565 592.435478 C 251.60427 592.435478 228.817809 592.956312 213.802182 593.997979 L 213.802182 583.320894 C 227.34385 582.628186 237.020935 580.935477 242.838644 578.242768 C 248.739686 575.555268 251.692812 570.690684 251.692812 563.659433 C 251.692812 557.586516 249.562603 549.206307 245.312603 538.529222 L 212.760515 451.03442 L 83.724042 451.03442 L 61.849039 507.539635 C 54.729247 526.810471 51.171955 541.393806 51.171955 551.28964 C 51.171955 562.315683 54.989664 570.346934 62.63029 575.378185 C 70.270915 580.326102 81.942792 582.977144 97.656335 583.320894 L 97.656335 593.997979 C 77.343833 592.956312 56.901122 592.435478 36.328203 592.435478 C 20.27091 592.435478 6.901116 592.956312 -3.775968 593.997979 L -3.775968 583.320894 C 14.020909 579.070893 28.083411 563.617767 38.411537 536.966722 L 163.671968 213.794809 L 172.265719 213.794809 Z M 208.593848 440.357336 L 148.828216 280.982317 L 88.020918 440.357336 Z M 208.593848 440.357336 " stroke="#ffd700" stroke-width="5.33333" stroke-opacity="1" stroke-miterlimit="4"/></svg>