<svg xmlns="http://www.w3.org/2000/svg" xmlns:xlink="http://www.w3.org/1999/xlink" width="500" zoomAndPan="magnify" viewBox="0 0 375 374.999991" height="500" preserveAspectRatio="xMidYMid meet" version="1.0"><defs><g/></defs><g fill="#ffd700" fill-opacity="1"><g transform="translate(31.78931, 365.724228)"><g><path d="M 280.296875 -41.53125 C 288.203125 -21.09375 299.570312 -10.546875 314.40625 -9.890625 L 314.40625 0 C 301.21875 -0.988281 283.585938 -1.484375 261.515625 -1.484375 C 233.171875 -1.484375 212.078125 -0.988281 198.234375 0 L 198.234375 -9.890625 C 210.753906 -10.546875 219.734375 -12.109375 225.171875 -14.578125 C 230.609375 -17.054688 233.328125 -21.585938 233.328125 -28.171875 C 233.328125 -33.773438 231.347656 -41.519531 227.390625 -51.40625 L 197.25 -132.484375 L 77.609375 -132.484375 L 57.34375 -80.078125 C 50.75 -62.285156 47.453125 -48.773438 47.453125 -39.546875 C 47.453125 -29.328125 50.992188 -21.910156 58.078125 -17.296875 C 65.171875 -12.679688 75.96875 -10.210938 90.46875 -9.890625 L 90.46875 0 C 71.675781 -0.988281 52.722656 -1.484375 33.609375 -1.484375 C 18.785156 -1.484375 6.429688 -0.988281 -3.453125 0 L -3.453125 -9.890625 C 13.015625 -13.835938 26.03125 -28.171875 35.59375 -52.890625 L 151.765625 -352.46875 L 159.671875 -352.46875 Z M 193.28125 -142.375 L 137.921875 -290.1875 L 81.5625 -142.375 Z M 193.28125 -142.375 "/></g></g></g></svg>