<svg xmlns="http://www.w3.org/2000/svg" xmlns:xlink="http://www.w3.org/1999/xlink" width="500" zoomAndPan="magnify" viewBox="0 0 375 374.999991" height="500" preserveAspectRatio="xMidYMid meet" version="1.0"><path stroke-linecap="butt" transform="matrix(0.926886, 0, 0, 0.926886, 0.0000045, -184.846262)" fill="none" stroke-linejoin="miter" d="M 336.640345 549.207888 C 345.233463 571.257517 357.514162 582.627911 373.486657 583.323283 L 373.486657 593.998304 C 359.250486 592.957353 340.239424 592.438984 316.457685 592.438984 C 285.899226 592.438984 263.116295 592.957353 248.09625 593.998304 L 248.09625 583.323283 C 261.641263 582.627911 271.317476 580.937945 277.133318 578.244957 C 283.037663 575.551969 285.987728 570.692791 285.987728 563.663207 C 285.987728 557.586073 283.859467 549.207888 279.607159 538.532867 L 247.055298 451.033939 L 118.019454 451.033939 L 96.146829 507.540327 C 89.028743 526.81268 85.467593 541.39443 85.467593 551.294006 C 85.467593 562.314606 89.28582 570.347212 96.926489 575.37918 C 104.567157 580.32686 116.240986 582.977704 131.95219 583.323283 L 131.95219 593.998304 C 111.638885 592.957353 91.199148 592.438984 70.624552 592.438984 C 54.567769 592.438984 41.19976 592.957353 30.520525 593.998304 L 30.520525 583.323283 C 48.317846 579.070975 62.377013 563.616849 72.706455 536.969333 L 197.966216 213.793923 L 206.559334 213.793923 Z M 242.887278 440.354703 L 183.123175 280.979547 L 122.31812 440.354703 Z M 242.887278 440.354703 " stroke="#ffd700" stroke-width="5.33333" stroke-opacity="1" stroke-miterlimit="4"/></svg>